#N canvas 740 280 464 571 10;
#X obj 157 204 text define texto;
#X msg 130 86 symbol mia;
#X msg 130 59 symbol penelope;
#X msg 157 174 read -c \$1.txt;
#X text 126 39 filenames;
#X obj 130 230 t b b;
#X obj 163 259 text size texto;
#X obj 130 292 random;
#X obj 130 325 text get texto;
#X symbolatom 130 352 10 0 0 0 - - -;
#X obj 83 230 bng 15 250 50 0 empty empty empty 17 7 0 10 -262144 -1
-1;
#X obj 130 116 t b s b;
#X msg 175 145 clear;
#X floatatom 189 293 5 0 0 0 - - -;
#X connect 1 0 11 0;
#X connect 2 0 11 0;
#X connect 3 0 0 0;
#X connect 5 0 7 0;
#X connect 5 1 6 0;
#X connect 6 0 7 1;
#X connect 6 0 13 0;
#X connect 7 0 8 0;
#X connect 8 0 9 0;
#X connect 10 0 7 0;
#X connect 11 0 5 0;
#X connect 11 1 3 0;
#X connect 11 2 12 0;
