#N canvas 245 75 1512 916 10;
#X obj 127 25 loadbang;
#X obj 127 47 r startCall;
#X obj 127 69 r callFinished;
#X obj 210 307 *~ 1;
#X obj 127 91 r getFile;
#X msg 53 118 stop;
#X text 50 50 STOP!!;
#N canvas 477 148 1120 718 capture-number 0;
#X obj 409 259 == 0;
#X obj 330 253 tgl 16 0 empty empty empty 0 -8 0 10 #fcfcfc #000000 #000000 0 1;
#X obj 409 290 change 1;
#X msg 409 321 1;
#X obj 409 352 +;
#X obj 495 353 int;
#X floatatom 495 297 5 0 0 0 - - - 0;
#X obj 495 256 bng 16 250 50 0 empty empty empty 0 -8 0 10 #fcfcfc #000000 #000000;
#X obj 676 253 list store;
#X text 676 162 Create list;
#X msg 753 253 0;
#X obj 676 222 t b b;
#X obj 753 284 print list;
#X msg 676 191 prepend \$1;
#X obj 676 284 list split 1;
#X obj 495 173 t b b;
#X msg 497 278 0;
#X obj 495 235 t b b;
#X floatatom 495 384 5 0 0 0 - - - 0;
#X obj 753 222 delay 500;
#X obj 495 414 spigot;
#X obj 495 445 bng 16 250 50 0 empty empty empty 0 -8 0 10 #fcfcfc #000000 #000000;
#X obj 330 160 spigot;
#X obj 330 222 bng 16 250 50 0 empty empty empty 0 -8 0 10 #fcfcfc #000000 #000000;
#X obj 330 191 sel 0;
#X obj 330 129 change 1;
#X floatatom 845 430 5 0 0 0 - - - 0;
#X obj 845 479 bng 16 250 50 0 empty empty empty 0 -8 0 10 #fcfcfc #000000 #000000;
#X obj 673 426 list store;
#X msg 673 396 prepend \$1;
#X floatatom 676 343 5 0 0 0 - - - 0;
#X obj 845 330 t b b;
#X obj 845 355 delay 500;
#X obj 845 305 bng 16 250 50 0 empty empty empty 0 -8 0 10 #fcfcfc #000000 #000000;
#X obj 845 380 list length;
#X obj 845 405 clip 0 5;
#X obj 845 454 sel 4;
#X obj 349 98 delay 3;
#X obj 808 539 s startCall;
#X obj 787 396 t b b;
#X msg 543 499 2;
#X floatatom 564 535 5 0 0 0 - - - 0;
#X msg 586 499 5;
#X obj 844 505 t b b;
#N canvas 0 22 450 278 (subpatch) 0;
#X coords 0 1 100 -1 104 51 1;
#X restore 636 321 graph;
#X obj 894 539 s getFile;
#X msg 587 337 100;
#X msg 587 364 90;
#X obj 298 42 r wpiDial;
#X obj 673 456 s number;
#X obj 495 204 delay 200;
#X connect 0 0 2 0;
#X connect 1 0 0 0;
#X connect 2 0 3 0;
#X connect 3 0 4 0;
#X connect 4 0 5 0;
#X connect 5 0 4 1;
#X connect 5 0 18 0;
#X connect 6 0 5 1;
#X connect 6 0 5 0;
#X connect 7 0 16 0;
#X connect 8 0 14 0;
#X connect 10 0 8 1;
#X connect 11 0 8 0;
#X connect 11 1 19 0;
#X connect 13 0 8 0;
#X connect 14 0 30 0;
#X connect 15 1 50 0;
#X connect 16 0 6 0;
#X connect 17 0 7 0;
#X connect 17 1 11 0;
#X connect 18 0 20 1;
#X connect 18 0 20 0;
#X connect 19 0 10 0;
#X connect 20 0 21 0;
#X connect 20 0 13 0;
#X connect 22 0 24 0;
#X connect 23 0 1 0;
#X connect 23 0 15 0;
#X connect 24 0 23 0;
#X connect 25 0 22 0;
#X connect 25 0 22 1;
#X connect 26 0 36 0;
#X connect 27 0 43 0;
#X connect 28 0 34 0;
#X connect 28 0 49 0;
#X connect 29 0 28 0;
#X connect 30 0 29 0;
#X connect 30 0 33 0;
#X connect 31 1 32 0;
#X connect 32 0 34 0;
#X connect 33 0 28 0;
#X connect 33 0 31 0;
#X connect 34 0 35 0;
#X connect 35 0 26 0;
#X connect 36 0 27 0;
#X connect 36 0 39 0;
#X connect 37 0 25 0;
#X connect 39 1 28 1;
#X connect 40 0 41 0;
#X connect 41 0 29 0;
#X connect 42 0 41 0;
#X connect 43 0 38 0;
#X connect 43 1 45 0;
#X connect 46 0 30 0;
#X connect 47 0 30 0;
#X connect 48 0 25 0;
#X connect 48 0 37 0;
#X connect 50 0 17 0;
#X restore 57 202 pd capture-number;
#N canvas 768 115 623 533 number-logic 1;
#X obj 64 132 unpack f f f f;
#X floatatom 67 178 5 0 0 0 - - - 0;
#X floatatom 110 178 5 0 0 0 - - - 0;
#X floatatom 155 178 5 0 0 0 - - - 0;
#X floatatom 227 178 5 0 0 0 - - - 0;
#X obj 400 312 t b b;
#X symbolatom 71 448 10 0 0 0 - - - 0;
#X floatatom 426 372 5 0 0 0 - - - 0;
#X msg 479 274 read -c phonebook.txt;
#X obj 479 299 text define phonebook;
#X obj 72 425 text get phonebook;
#X obj 426 349 text size phonebook;
#X obj 398 153 bng 16 250 50 0 empty empty empty 0 -8 0 10 #fcfcfc #000000 #000000;
#X obj 72 471 s pickedNumber;
#X obj 398 130 r getFile;
#X text 64 60 Pass the dialled number;
#X text 64 80 To the Random Seed;
#X obj 70 377 mod, f 7;
#X floatatom 71 402 5 0 0 0 - - - 0;
#X obj 67 200 % 10;
#X obj 155 246 +;
#X obj 67 274 +;
#X obj 67 297 +;
#X floatatom 67 320 5 0 0 0 - - - 0;
#X obj 227 200 % 10, f 6;
#X obj 227 223 * 1000;
#X obj 155 200 % 10;
#X obj 155 223 * 100;
#X obj 110 200 % 10;
#X obj 110 223 * 10;
#X obj 64 104 r number;
#X connect 0 0 1 0;
#X connect 0 1 2 0;
#X connect 0 2 3 0;
#X connect 0 3 4 0;
#X connect 1 0 19 0;
#X connect 2 0 28 0;
#X connect 3 0 26 0;
#X connect 4 0 24 0;
#X connect 5 1 11 0;
#X connect 6 0 13 0;
#X connect 8 0 9 0;
#X connect 10 0 6 0;
#X connect 11 0 7 0;
#X connect 11 0 17 1;
#X connect 12 0 8 0;
#X connect 12 0 5 0;
#X connect 14 0 12 0;
#X connect 17 0 18 0;
#X connect 18 0 10 0;
#X connect 19 0 21 0;
#X connect 20 0 22 1;
#X connect 21 0 22 0;
#X connect 22 0 23 0;
#X connect 23 0 17 0;
#X connect 24 0 25 0;
#X connect 25 0 20 1;
#X connect 26 0 27 0;
#X connect 27 0 20 0;
#X connect 28 0 29 0;
#X connect 29 0 21 1;
#X connect 30 0 0 0;
#X restore 57 226 pd number-logic;
#X obj 210 233 r~ voice;
#X obj 210 196 r~ startBeep;
#X obj 210 270 r~ startEndBeep;
#X obj 53 148 s stop;
#X obj 546 200 wiringPi;
#X obj 439 51 loadbang;
#X obj 618 87 tgl 20 0 empty empty empty 0 -10 0 12 #fcfcfc #000000 #000000 0 1;
#X obj 509 50 tgl 18 0 empty empty empty 0 -9 0 10 #fcfcfc #000000 #000000 0 1;
#X text 491 23 on/off;
#X obj 639 651 dac~ 1;
#X obj 210 344 dac~ 2;
#X obj 363 378 s stop;
#X msg 363 322 stop;
#X obj 363 350 print audio;
#X msg 441 140 pinMode 5 input;
#X msg 545 138 digitalRead 5;
#X obj 514 274 s wpiDial;
#X obj 639 610 readsf~;
#X msg 602 514 start;
#X msg 558 545 stop;
#X obj 517 514 r startCall;
#X msg 639 569 open ringing.wav;
#X obj 665 514 t b b;
#X obj 753 98 wiringPi;
#X msg 753 24 pinMode 24 input;
#X msg 753 61 digitalRead 24;
#X obj 753 135 change 0;
#X obj 732 387 bng 18 250 50 0 empty empty empty 0 -9 0 10 #fcfcfc #000000 #000000;
#X obj 647 307 spigot;
#X obj 806 240 bng 18 250 50 0 empty empty empty 0 -9 0 10 #fcfcfc #000000 #000000;
#X obj 734 499 spigot;
#X obj 734 458 v isPhoneDown;
#X obj 513 449 bng 18 250 50 0 empty empty empty 0 -9 0 10 #fcfcfc #000000 #000000;
#X obj 734 540 bng 18 250 50 0 empty empty empty 0 -9 0 10 #fcfcfc #000000 #000000;
#X obj 806 310 expr if($f1 == 1 \, 1 \, 0 );
#X obj 801 344 s phoneIsPickedUp;
#X obj 471 569 r phoneIsPickedUp;
#X obj 806 205 delay 8;
#X obj 890 176 expr if($f1 == 1 \, 1 \, 0 );
#X obj 890 211 spigot;
#X text 923 348 Passes if phone is up;
#X text 793 506 Phone be down;
#X text 654 377 5 minutes;
#X obj 552 226 change 0;
#X obj 555 254 print phonedial;
#N canvas 512 174 450 300 audio 0;
#X obj 165 98 adc~ 1;
#X obj 165 180 dac~ 1 2;
#X obj 165 57 inlet;
#X obj 165 221 outlet;
#X obj 165 139 *~ 0.5;
#X connect 0 0 4 0;
#X connect 4 0 1 1;
#X restore 56 283 pd audio;
#X obj 544 69 metro 4;
#X obj 943 637 readsf~;
#X obj 943 661 *~ 1;
#X obj 943 685 dac~ 2;
#X msg 943 613 open play1.wav;
#X obj 914 434 r phoneIsPickedUp;
#X msg 889 613 start;
#X obj 914 457 expr if($f1 == 1 \, 1 \, 0 );
#X obj 914 480 bng 18 250 50 0 empty empty empty 0 -9 0 10 #fcfcfc #000000 #000000;
#X msg 848 607 stop;
#X obj 918 585 t b b b;
#X obj 639 692 *~ 0.1;
#X obj 411 484 v IsRinging;
#X obj 806 275 v isPhoneDown;
#X obj 719 274 v isPhoneDown;
#X obj 774 240 bng 18 250 50 0 empty empty empty 0 -9 0 10 #fcfcfc #000000 #000000;
#X obj 778 176 delay 10;
#X floatatom 411 444 5 0 0 0 - - - 0;
#X msg 468 417 1;
#X obj 472 662 v IsRinging;
#X floatatom 426 638 5 0 0 0 - - - 0;
#X msg 426 660 0;
#X obj 1009 550 v IsRinging;
#X obj 916 549 spigot;
#X obj 387 633 bng 18 250 50 0 empty empty empty 0 -9 0 10 #fcfcfc #000000 #000000;
#X obj 426 615 delay 100;
#X obj 914 505 t b b;
#N canvas 700 160 589 644 call-pipeline 1;
#X obj 93 329 readsf~;
#X msg 99 492 open end.wav;
#X obj 99 515 readsf~;
#X obj 99 469 t b b;
#X msg 185 492 start;
#X obj 91 118 readsf~;
#X obj 91 72 t b b;
#X msg 186 95 start;
#X msg 91 95 open dial.wav;
#X obj 155 359 s endCall;
#X obj 90 15 r startCall;
#X obj 186 149 s pickVoice;
#X obj 88 241 r pickVoice;
#X obj 99 444 r endCall;
#X obj 154 515 s callFinished;
#X text 99 415 END THE CALL;
#X text 201 12 START THE CALL;
#X text 82 209 PICKING A RANDOM VOICE;
#X obj 153 118 delay 500;
#X obj 155 329 delay 500;
#X obj 178 51 print started call;
#X obj 171 241 r pickedNumber;
#X msg 155 299 start;
#X msg 93 299 open \$1;
#X obj 160 268 symbol;
#X obj 91 268 t b b;
#X obj 208 268 print Who;
#X obj 93 359 s~ voice;
#X obj 91 141 s~ startBeep;
#X obj 99 538 s~ startEndBeep;
#X obj 47 517 r stop;
#X obj 37 324 r stop;
#X obj 33 99 r stop;
#X obj 445 51 bng 16 250 50 0 empty empty empty 0 -8 0 10 #fcfcfc #000000 #000000;
#X obj 445 72 s startCall;
#X obj 292 142 print delayed;
#X obj 90 44 delay 8;
#X text 443 27 For testing;
#X connect 0 0 27 0;
#X connect 0 1 19 0;
#X connect 1 0 2 0;
#X connect 2 0 29 0;
#X connect 2 1 14 0;
#X connect 3 0 4 0;
#X connect 3 1 1 0;
#X connect 4 0 2 0;
#X connect 5 0 28 0;
#X connect 5 1 18 0;
#X connect 5 1 35 0;
#X connect 6 0 7 0;
#X connect 6 1 8 0;
#X connect 7 0 5 0;
#X connect 8 0 5 0;
#X connect 10 0 20 0;
#X connect 10 0 36 0;
#X connect 12 0 25 0;
#X connect 13 0 3 0;
#X connect 18 0 11 0;
#X connect 19 0 9 0;
#X connect 21 0 24 0;
#X connect 22 0 0 0;
#X connect 23 0 0 0;
#X connect 24 0 23 0;
#X connect 24 0 26 0;
#X connect 25 0 22 0;
#X connect 25 1 24 0;
#X connect 30 0 2 0;
#X connect 31 0 0 0;
#X connect 32 0 5 0;
#X connect 33 0 34 0;
#X connect 36 0 6 0;
#X restore 57 251 pd call-pipeline;
#X text 513 357 Only ring \, when phone is inactive;
#X obj 512 417 delay 300 1 persec;
#X obj 731 429 delay 30 1 persec;
#X obj 81 610 spigot;
#X obj 90 556 bng 18 250 50 0 empty empty empty 0 -9 0 10 #fcfcfc #000000 #000000;
#X obj 80 635 s endCall;
#X text 34 392 If some fucker took the phone off the hook \, 10 mintes we scream;
#X floatatom 159 499 5 0 0 0 - - - 0;
#X obj 159 473 v isPhoneDown;
#X floatatom 157 548 5 0 0 0 - - - 0;
#X obj 160 525 expr if($f1 == 1 \, 0 \, 1 );
#X obj 26 485 tgl 18 0 empty empty empty 0 -9 0 10 #fcfcfc #000000 #000000 0 1;
#X obj 26 508 metro 1 1 persec;
#X obj 40 433 r isPhoneDown;
#X obj 60 458 change;
#X connect 0 0 5 0;
#X connect 1 0 5 0;
#X connect 2 0 5 0;
#X connect 3 0 19 0;
#X connect 4 0 5 0;
#X connect 5 0 12 0;
#X connect 9 0 3 0;
#X connect 10 0 3 0;
#X connect 11 0 3 0;
#X connect 13 0 25 0;
#X connect 13 0 52 0;
#X connect 14 0 23 0;
#X connect 14 0 55 0;
#X connect 16 0 55 0;
#X connect 21 0 22 0;
#X connect 21 0 20 0;
#X connect 23 0 13 0;
#X connect 24 0 13 0;
#X connect 26 0 66 0;
#X connect 26 1 76 0;
#X connect 27 0 26 0;
#X connect 28 0 26 0;
#X connect 29 0 28 0;
#X connect 30 0 26 0;
#X connect 31 0 27 0;
#X connect 31 1 30 0;
#X connect 32 0 35 0;
#X connect 33 0 32 0;
#X connect 34 0 32 0;
#X connect 35 0 37 1;
#X connect 35 0 37 0;
#X connect 35 0 47 0;
#X connect 35 0 69 0;
#X connect 35 0 71 0;
#X connect 36 0 64 0;
#X connect 36 0 85 0;
#X connect 37 0 36 0;
#X connect 37 0 21 0;
#X connect 38 0 68 0;
#X connect 39 0 42 0;
#X connect 40 0 39 1;
#X connect 40 0 39 0;
#X connect 41 0 40 0;
#X connect 41 0 84 0;
#X connect 42 0 31 0;
#X connect 42 0 73 0;
#X connect 43 0 44 0;
#X connect 45 0 26 0;
#X connect 45 0 80 0;
#X connect 46 0 38 0;
#X connect 47 0 48 0;
#X connect 47 0 48 1;
#X connect 48 0 46 0;
#X connect 52 0 53 0;
#X connect 55 0 15 0;
#X connect 55 0 24 0;
#X connect 55 0 34 0;
#X connect 56 0 57 0;
#X connect 57 0 58 0;
#X connect 59 0 56 0;
#X connect 60 0 62 0;
#X connect 61 0 56 0;
#X connect 62 0 63 0;
#X connect 63 0 81 0;
#X connect 64 0 56 0;
#X connect 65 0 61 0;
#X connect 65 1 59 0;
#X connect 65 2 64 0;
#X connect 66 0 18 0;
#X connect 68 0 43 0;
#X connect 70 0 69 0;
#X connect 71 0 70 0;
#X connect 72 0 67 0;
#X connect 73 0 72 0;
#X connect 75 0 74 0;
#X connect 76 0 75 0;
#X connect 77 0 78 1;
#X connect 78 0 65 0;
#X connect 79 0 76 0;
#X connect 80 0 79 0;
#X connect 81 0 78 0;
#X connect 81 1 77 0;
#X connect 84 0 41 0;
#X connect 85 0 41 0;
#X connect 86 0 88 0;
#X connect 87 0 91 0;
#X connect 87 0 86 0;
#X connect 90 0 93 0;
#X connect 91 0 90 0;
#X connect 92 0 86 1;
#X connect 93 0 92 0;
#X connect 94 0 95 0;
#X connect 95 0 87 0;
#X connect 96 0 97 0;
#X connect 97 0 94 0;
#X coords 0 0 1 1 85 60 0;
