#N canvas 314 78 976 820 10;
#X obj 417 301 == 0;
#X obj 298 392 tgl 16 0 empty empty empty 0 -8 0 10 #fcfcfc #000000 #000000 0 1;
#X obj 417 332 change 1;
#X msg 417 363 1;
#X obj 417 394 +;
#X obj 503 369 int;
#X floatatom 503 339 5 0 0 0 - - - 0;
#X obj 504 300 bng 16 250 50 0 empty empty empty 0 -8 0 10 #fcfcfc #000000 #000000;
#X obj 607 351 list store;
#X text 609 260 Create list;
#X text 683 419 Whats the list?;
#X msg 686 352 0;
#X obj 609 320 t b b;
#X obj 607 413 print list;
#X msg 609 289 prepend \$1;
#X obj 607 382 list split 1;
#X obj 190 160 wiringPi;
#X msg 190 98 pinMode 20 input;
#X msg 190 129 digitalRead 20;
#X obj 190 36 loadbang;
#X obj 268 64 tgl 20 0 empty empty empty 0 -10 0 12 #fcfcfc #000000 #000000 0 1;
#X obj 503 215 t b b;
#X obj 503 246 delay 500;
#X msg 503 320 0;
#X obj 503 277 t b b;
#X floatatom 502 404 5 0 0 0 - - - 0;
#X obj 686 321 delay 500;
#X obj 722 259 print correct;
#X obj 612 202 spigot;
#X obj 721 221 bng 16 250 50 0 empty empty empty 0 -8 0 10 #fcfcfc #000000 #000000;
#X obj 260 288 spigot;
#X obj 298 366 bng 16 250 50 0 empty empty empty 0 -8 0 10 #fcfcfc #000000 #000000;
#X obj 260 321 sel 0;
#X obj 193 233 change 1;
#X obj 190 67 metro 40;
#X floatatom 880 581 5 0 0 0 - - - 0;
#X obj 881 642 bng 16 250 50 0 empty empty empty 0 -8 0 10 #fcfcfc #000000 #000000;
#X obj 934 641 bng 16 250 50 0 empty empty empty 0 -8 0 10 #fcfcfc #000000 #000000;
#X obj 624 562 list store;
#X msg 530 545 prepend \$1;
#X obj 116 632 print calling;
#X obj 74 194 metro 100;
#X obj 74 215 tgl 16 0 empty empty empty 0 -8 0 10 #fcfcfc #000000 #000000 0 1;
#X obj 44 147 tgl 16 0 empty empty empty 0 -8 0 10 #fcfcfc #000000 #000000 0 1;
#X floatatom 601 478 5 0 0 0 - - - 0;
#X obj 828 471 t b b;
#X obj 833 497 delay 500;
#X obj 668 491 bng 16 250 50 0 empty empty empty 0 -8 0 10 #fcfcfc #000000 #000000;
#X obj 836 522 list length;
#X obj 835 552 clip 0 5;
#X obj 714 716 spigot;
#X obj 801 721 tgl 16 0 empty empty empty 0 -8 0 10 #fcfcfc #000000 #000000 0 1;
#X obj 768 656 t b b;
#X obj 816 686 delay 10;
#X text 769 347 Get the first itemn \, which reverse ordered to be the highest number;
#X obj 881 614 sel 4;
#X obj 554 679 send number;
#X obj 117 578 receive number;
#X obj 115 39 tgl 18 0 empty empty empty 0 -9 0 10 #fcfcfc #000000 #000000 0 1;
#X text 97 12 on/off;
#X text 30 127 Pretend;
#X msg 138 388 start;
#X obj 66 457 readsf~;
#X obj 78 541 dac~;
#X obj 153 480 bng 18 250 50 0 empty empty empty 0 -9 0 10 #fcfcfc #000000 #000000;
#X msg 43 338 open play.wav;
#X obj 67 500 *~ 100;
#X connect 0 0 2 0;
#X connect 1 0 0 0;
#X connect 2 0 3 0;
#X connect 3 0 4 0;
#X connect 4 0 5 0;
#X connect 5 0 4 1;
#X connect 5 0 25 0;
#X connect 6 0 5 1;
#X connect 6 0 5 0;
#X connect 7 0 23 0;
#X connect 8 0 15 0;
#X connect 11 0 8 1;
#X connect 12 0 8 0;
#X connect 12 1 26 0;
#X connect 14 0 8 0;
#X connect 15 0 13 0;
#X connect 15 0 44 0;
#X connect 16 0 33 0;
#X connect 17 0 18 0;
#X connect 18 0 16 0;
#X connect 19 0 34 0;
#X connect 21 1 22 0;
#X connect 22 0 24 0;
#X connect 23 0 6 0;
#X connect 24 0 7 0;
#X connect 24 1 12 0;
#X connect 25 0 28 1;
#X connect 25 0 28 0;
#X connect 26 0 11 0;
#X connect 28 0 29 0;
#X connect 28 0 27 0;
#X connect 28 0 14 0;
#X connect 30 0 32 0;
#X connect 31 0 1 0;
#X connect 31 0 21 0;
#X connect 32 0 31 0;
#X connect 33 0 30 0;
#X connect 33 0 30 1;
#X connect 34 0 20 0;
#X connect 34 0 17 0;
#X connect 35 0 55 0;
#X connect 38 0 48 0;
#X connect 38 0 56 0;
#X connect 39 0 38 0;
#X connect 41 0 42 0;
#X connect 42 0 33 0;
#X connect 43 0 41 0;
#X connect 44 0 39 0;
#X connect 44 0 47 0;
#X connect 45 1 46 0;
#X connect 46 0 48 0;
#X connect 47 0 38 0;
#X connect 47 0 45 0;
#X connect 48 0 49 0;
#X connect 49 0 35 0;
#X connect 51 0 50 1;
#X connect 52 0 53 0;
#X connect 52 1 38 1;
#X connect 52 1 51 0;
#X connect 53 0 51 0;
#X connect 55 0 36 0;
#X connect 55 0 52 0;
#X connect 55 1 37 0;
#X connect 57 0 40 0;
#X connect 58 0 34 0;
#X connect 61 0 62 0;
#X connect 62 0 66 0;
#X connect 62 1 64 0;
#X connect 65 0 62 0;
#X connect 66 0 63 0;
#X coords 0 0 1 1 85 60 0;
